<svg xmlns="http://www.w3.org/2000/svg" width="98" height="52" fill="none"><path fill="#6B7B84" fill-rule="evenodd" stroke="#80949F" stroke-width=".5" d="M36.733 1a1 1 0 0 0-1 1v4.174a1 1 0 0 0 1 1h36.502c10.174 0 18.165 7.672 18.165 17.603 0 .28.228.509.509.509h5.308a.51.51 0 0 0 .509-.51C97.726 11.505 86.833 1 73.236 1zM7.136 25.717a.43.43 0 0 0-.43-.431H1.156a.43.43 0 0 0-.431.43c0 13.431 10.27 24.52 23.552 25.246l42.545.037a1 1 0 0 0 1-1v-4.474a1 1 0 0 0-1-1h-41.08c-10.284-.028-18.607-8.407-18.607-18.808Z" clip-rule="evenodd"/><path fill="#6B7B84" fill-rule="evenodd" d="M28.27 39.571c2.751 0 5.043-.523 7.307-1.6l.156-.144V30.12l-.847 1.062c-1.63 1.744-3.819 2.704-6.296 2.704-4.613 0-9.246-2.92-9.246-8.501 0-4.218 3.196-8.7 9.084-8.7 1.175 0 4.033.272 6.454 2.79l.851 1.027v-7.673l-.149-.146C33.277 11.55 30.924 11 28.242 11c-4.589 0-8.17 1.183-11.021 3.615-1.81 1.524-4.826 4.939-4.826 10.689 0 4.251 1.546 7.572 4.849 10.452 3.072 2.638 6.48 3.815 11.026 3.815" clip-rule="evenodd"/><path stroke="#80949F" stroke-width=".5" d="M28.27 39.571c2.751 0 5.043-.523 7.307-1.6l.156-.144V30.12l-.847 1.062c-1.63 1.744-3.819 2.704-6.296 2.704-4.613 0-9.246-2.92-9.246-8.501 0-4.218 3.196-8.7 9.084-8.7 1.175 0 4.033.272 6.454 2.79l.851 1.027v-7.673l-.149-.146C33.277 11.55 30.924 11 28.242 11c-4.589 0-8.17 1.183-11.021 3.615-1.81 1.524-4.826 4.939-4.826 10.689 0 4.251 1.546 7.572 4.849 10.452 3.072 2.638 6.48 3.815 11.026 3.815"/><path fill="#6B7B84" fill-rule="evenodd" d="M48.132 17.429h1.37c1.258 0 2.691.067 3.776.79.53.371 1.418 1.23 1.418 2.787 0 1.151-.52 2.184-1.377 2.828-1.1.782-2.408.737-3.46.737h-1.727zm3.08 12.328c3.246 0 5.788-.917 7.552-2.645 2.171-2.122 2.496-5.04 2.496-6.58 0-1.646-.399-4.857-3.071-7.182C55.998 11.47 53.66 11 50.363 11h-8.795v28.571h6.69v-9.814z" clip-rule="evenodd"/><path fill="#80949F" d="M48.132 17.429v-.25h-.25v.25zm5.146.79.143-.204-.004-.003zm.04 5.615.145.204.006-.004zm-5.186.737h-.25v.25h.25zm10.632 2.54-.174-.178zM58.19 13.35l.164-.189h-.002zM41.568 11v-.25h-.25V11zm0 28.571h-.25v.25h.25zm6.69 0v.25h.25v-.25zm0-9.814v-.25h-.25v.25zm-.126-12.078h1.37v-.5h-1.37zm1.37 0c1.264 0 2.623.072 3.637.749l.278-.416c-1.156-.771-2.663-.833-3.914-.833zm3.632.746c.491.343 1.312 1.134 1.312 2.581h.5c0-1.669-.956-2.593-1.525-2.991zm1.312 2.581c0 1.075-.484 2.032-1.278 2.628l.3.4c.923-.693 1.478-1.8 1.478-3.028zm-1.272 2.624c-1.023.727-2.243.69-3.314.69v.5c1.03 0 2.426.054 3.603-.782zm-3.314.69h-1.728v.5h1.728zm-1.478.25V17.43h-.5v7.142zm2.83 5.437c3.293 0 5.904-.931 7.727-2.716l-.35-.358c-1.706 1.67-4.178 2.574-7.377 2.574zm7.727-2.716c2.244-2.193 2.57-5.197 2.57-6.758h-.5c0 1.516-.321 4.35-2.42 6.4zm2.57-6.758c0-1.676-.404-4.977-3.156-7.372l-.328.377c2.592 2.256 2.985 5.378 2.985 6.995zm-3.158-7.373c-2.256-1.936-4.664-2.41-7.988-2.41v.5c3.271 0 5.538.466 7.663 2.29zm-7.988-2.41h-8.795v.5h8.795zm-9.045.25v28.571h.5V11zm.25 28.821h6.69v-.5h-6.69zm6.94-.25v-9.814h-.5v9.814zm-.25-9.564h2.954v-.5h-2.954z"/><path fill="#6B7B84" fill-rule="evenodd" d="M81.328 24.493c-1.454-1.262-3.484-1.993-5.789-2.752-1.641-.56-2.546-.868-3.15-1.406-.475-.396-.687-.826-.687-1.394 0-1.243.863-2.572 3.285-2.572 1.647 0 3.025.689 4.098 2.048l.425.54 3.533-4.405-.322-.316C80.56 12.12 77.713 11 74.487 11c-6.508 0-9.422 4.147-9.422 8.257 0 2.205.803 3.984 2.382 5.284 1.414 1.187 3.138 1.852 4.791 2.395l.187.06c1.469.476 2.987.968 3.894 1.763.631.567.913 1.185.913 2 0 1.87-1.504 3.126-3.741 3.126-1.769 0-4.098-.849-5.33-3.231l-.322-.624-4.391 3.98.259.36c1.4 1.942 4.562 5.201 9.992 5.201 5.988 0 10.17-3.77 10.17-9.167 0-3.088-1.383-4.92-2.54-5.91" clip-rule="evenodd"/><path stroke="#80949F" stroke-width=".5" d="M81.328 24.493c-1.454-1.262-3.484-1.993-5.789-2.752-1.641-.56-2.546-.868-3.15-1.406-.475-.396-.687-.826-.687-1.394 0-1.243.863-2.572 3.285-2.572 1.647 0 3.025.689 4.098 2.048l.425.54 3.533-4.405-.322-.316C80.56 12.12 77.713 11 74.487 11c-6.508 0-9.422 4.147-9.422 8.257 0 2.205.803 3.984 2.382 5.284 1.414 1.187 3.138 1.852 4.791 2.395l.187.06c1.469.476 2.987.968 3.894 1.763.631.567.913 1.185.913 2 0 1.87-1.504 3.126-3.741 3.126-1.769 0-4.098-.849-5.33-3.231l-.322-.624-4.391 3.98.259.36c1.4 1.942 4.562 5.201 9.992 5.201 5.988 0 10.17-3.77 10.17-9.167 0-3.088-1.383-4.92-2.54-5.91"/></svg>