<svg width="33" height="15" viewBox="0 0 33 15" fill="none" xmlns="http://www.w3.org/2000/svg">
<path fill-rule="evenodd" clip-rule="evenodd" d="M7.95695 14.0221C9.1889 14.0221 10.2151 13.7828 11.2286 13.2903L11.2986 13.2249V9.70084L10.9193 10.1864C10.1895 10.9838 9.20941 11.4228 8.10057 11.4228C6.03521 11.4228 3.96083 10.0878 3.96083 7.53648C3.96083 5.60843 5.39149 3.55932 8.02794 3.55932C8.55399 3.55932 9.83334 3.6837 10.9175 4.835L11.2986 5.30447V1.79641L11.2317 1.73009C10.199 1.21254 9.14571 0.960938 7.94443 0.960938C5.89015 0.960938 4.28674 1.50177 3.01006 2.61335C2.20025 3.31 0.849609 4.8712 0.849609 7.49981C0.849609 9.44335 1.54165 10.9612 3.02042 12.2778C4.3961 13.4841 5.92144 14.0221 7.95695 14.0221" fill="#FF3E79"/>
<path fill-rule="evenodd" clip-rule="evenodd" d="M16.8497 3.89986H17.4634C18.0263 3.89986 18.6679 3.93057 19.1535 4.26157C19.3906 4.43095 19.7885 4.82306 19.7885 5.53526C19.7885 6.06155 19.5559 6.53346 19.1717 6.82793C18.6792 7.18545 18.0937 7.16495 17.6233 7.16495H16.8497V3.89986ZM18.2284 9.53547C19.6819 9.53547 20.8197 9.11621 21.6098 8.32636C22.5817 7.35644 22.727 6.0222 22.727 5.31879C22.727 4.56613 22.5485 3.09809 21.352 2.03515C20.3712 1.1757 19.3247 0.960938 17.8485 0.960938H13.9106V14.0221H16.9058V9.53547H18.2284V9.53547Z" fill="#FF3E79"/>
<path fill-rule="evenodd" clip-rule="evenodd" d="M31.7124 7.12934C31.0613 6.55241 30.1523 6.21795 29.1206 5.87105C28.3856 5.61527 27.9806 5.47436 27.7106 5.22818C27.4975 5.04727 27.4024 4.85087 27.4024 4.59129C27.4024 4.02272 27.7888 3.41509 28.8734 3.41509C29.6105 3.41509 30.2277 3.73026 30.7079 4.35147L30.8985 4.59813L32.4801 2.58485L32.336 2.44042C31.3686 1.47241 30.0939 0.960938 28.6496 0.960938C25.7356 0.960938 24.4312 2.85669 24.4312 4.73552C24.4312 5.74373 24.7908 6.55687 25.4977 7.15129C26.1306 7.69373 26.9024 7.99769 27.6427 8.24577L27.7264 8.27352C28.3838 8.49082 29.0638 8.71572 29.4698 9.07915C29.7524 9.33873 29.8783 9.62084 29.8783 9.99377C29.8783 10.8484 29.2052 11.4228 28.2035 11.4228C27.4116 11.4228 26.3689 11.0347 25.8173 9.9456L25.673 9.66027L23.707 11.4801L23.823 11.6441C24.4502 12.5322 25.8656 14.0221 28.2967 14.0221C30.9775 14.0221 32.8499 12.2987 32.8499 9.8311C32.8499 8.41974 32.2307 7.58209 31.7124 7.12934" fill="#FF3E79"/>
</svg>
