<svg width="8" height="11" viewBox="0 0 8 11" fill="none" xmlns="http://www.w3.org/2000/svg">
<path fill-rule="evenodd" clip-rule="evenodd" d="M1.20696 10.3788L3.70696 7.87883L6.20696 10.3788C6.4831 10.655 6.93081 10.655 7.20696 10.3788C7.4831 10.1027 7.4831 9.65497 7.20696 9.37883L4.41406 6.58594C4.02354 6.19541 3.39037 6.19541 2.99985 6.58594L0.206956 9.37883C-0.0691865 9.65497 -0.069187 10.1027 0.206956 10.3788C0.483098 10.655 0.930813 10.655 1.20696 10.3788ZM1.20696 4.37883L3.70696 1.87883L6.20696 4.37883C6.4831 4.65497 6.93081 4.65497 7.20696 4.37883C7.4831 4.10269 7.4831 3.65497 7.20696 3.37883L4.41406 0.585937C4.02354 0.195413 3.39037 0.195412 2.99985 0.585936L0.206956 3.37883C-0.0691859 3.65497 -0.0691865 4.10269 0.206956 4.37883C0.483099 4.65497 0.930814 4.65497 1.20696 4.37883Z" fill="#41F6D7"/>
</svg>
