<svg width="98" height="52" viewBox="0 0 98 52" fill="none" xmlns="http://www.w3.org/2000/svg">
<path fill-rule="evenodd" clip-rule="evenodd" d="M36.7334 1C36.1811 1 35.7334 1.44772 35.7334 2V6.17433C35.7334 6.72662 36.1811 7.17433 36.7334 7.17433H73.2351C83.4094 7.17433 91.4001 14.8459 91.4001 24.7769V24.7769C91.4001 25.0579 91.6279 25.2857 91.9089 25.2857H97.2171C97.4981 25.2857 97.7259 25.0579 97.7259 24.7769V24.7769C97.7259 11.504 86.8331 1 73.2351 1H36.7334Z" fill="#6B7B84" stroke="#80949F" stroke-width="0.5"/>
<path fill-rule="evenodd" clip-rule="evenodd" d="M7.13644 25.7169V25.7169C7.13644 25.4787 6.94336 25.2856 6.70518 25.2856H1.15709C0.918913 25.2856 0.72583 25.4787 0.72583 25.7169V25.7169C0.72583 39.1474 10.9969 50.2362 24.2782 50.9619L66.8227 50.9991C67.3753 50.9995 67.8236 50.5517 67.8236 49.9991V45.5249C67.8236 44.9727 67.3759 44.5249 66.8236 44.5249H25.7428C15.4587 44.497 7.13644 36.1182 7.13644 25.7169Z" fill="#6B7B84" stroke="#80949F" stroke-width="0.5"/>
<path fill-rule="evenodd" clip-rule="evenodd" d="M28.2697 39.5714C31.0213 39.5714 33.3133 39.0479 35.5771 37.9706L35.7334 37.8274V30.1186L34.8863 31.1807C33.2562 32.9251 31.0671 33.8854 28.5904 33.8854C23.9774 33.8854 19.3441 30.9651 19.3441 25.384C19.3441 21.1664 22.5396 16.684 28.4282 16.684C29.6032 16.684 32.4607 16.9561 34.8821 19.4745L35.7334 20.5015V12.8276L35.584 12.6825C33.2773 11.5504 30.9248 11 28.2417 11C23.6534 11 20.072 12.1831 17.2205 14.6147C15.4118 16.1386 12.395 19.5537 12.395 25.3038C12.395 29.5553 13.9407 32.8757 17.2437 35.7556C20.3163 38.3944 23.7232 39.5714 28.2697 39.5714" fill="#6B7B84"/>
<path d="M28.2697 39.5714C31.0213 39.5714 33.3133 39.0479 35.5771 37.9706L35.7334 37.8274V30.1186L34.8863 31.1807C33.2562 32.9251 31.0671 33.8854 28.5904 33.8854C23.9774 33.8854 19.3441 30.9651 19.3441 25.384C19.3441 21.1664 22.5396 16.684 28.4282 16.684C29.6032 16.684 32.4607 16.9561 34.8821 19.4745L35.7334 20.5015V12.8276L35.584 12.6825C33.2773 11.5504 30.9248 11 28.2417 11C23.6534 11 20.072 12.1831 17.2205 14.6147C15.4118 16.1386 12.395 19.5537 12.395 25.3038C12.395 29.5553 13.9407 32.8757 17.2437 35.7556C20.3163 38.3944 23.7232 39.5714 28.2697 39.5714" stroke="#80949F" stroke-width="0.5"/>
<path fill-rule="evenodd" clip-rule="evenodd" d="M48.1321 17.4286H49.5028C50.7601 17.4286 52.1931 17.4957 53.2778 18.2198C53.8074 18.5903 54.696 19.4481 54.696 21.006C54.696 22.1573 54.1765 23.1896 53.3185 23.8337C52.2183 24.6158 50.9107 24.5709 49.8599 24.5709H48.1321V17.4286ZM51.2118 29.7568C54.4584 29.7568 56.9996 28.8397 58.7643 27.1119C60.9351 24.9902 61.2596 22.0715 61.2596 20.5328C61.2596 18.8864 60.8611 15.675 58.1886 13.3498C55.9979 11.4698 53.6605 11 50.3633 11H41.5679V39.5714H48.2576V29.7568H51.2118V29.7568Z" fill="#6B7B84"/>
<path d="M48.1321 17.4286V17.1786H47.8821V17.4286H48.1321ZM53.2778 18.2198L53.4211 18.0149L53.4166 18.0119L53.2778 18.2198ZM53.3185 23.8337L53.4634 24.0375L53.4686 24.0336L53.3185 23.8337ZM48.1321 24.5709H47.8821V24.8209H48.1321V24.5709ZM58.7643 27.1119L58.5896 26.9331L58.5894 26.9333L58.7643 27.1119ZM58.1886 13.3498L58.3527 13.1612L58.3514 13.1601L58.1886 13.3498ZM41.5679 11V10.75H41.3179V11H41.5679ZM41.5679 39.5714H41.3179V39.8214H41.5679V39.5714ZM48.2576 39.5714V39.8214H48.5076V39.5714H48.2576ZM48.2576 29.7568V29.5068H48.0076V29.7568H48.2576ZM48.1321 17.6786H49.5028V17.1786H48.1321V17.6786ZM49.5028 17.6786C50.766 17.6786 52.1251 17.7509 53.139 18.4277L53.4166 18.0119C52.2612 17.2406 50.7542 17.1786 49.5028 17.1786V17.6786ZM53.1344 18.4247C53.6252 18.768 54.446 19.5587 54.446 21.006H54.946C54.946 19.3374 53.9895 18.4127 53.4211 18.015L53.1344 18.4247ZM54.446 21.006C54.446 22.0811 53.9616 23.0383 53.1684 23.6338L53.4686 24.0336C54.3915 23.3408 54.946 22.2334 54.946 21.006H54.446ZM53.1736 23.63C52.1505 24.3573 50.931 24.3209 49.8599 24.3209V24.8209C50.8904 24.8209 52.2862 24.8743 53.4633 24.0375L53.1736 23.63ZM49.8599 24.3209H48.1321V24.8209H49.8599V24.3209ZM48.3821 24.5709V17.4286H47.8821V24.5709H48.3821ZM51.2118 30.0068C54.5054 30.0068 57.1161 29.0755 58.9392 27.2905L58.5894 26.9333C56.883 28.6039 54.4113 29.5068 51.2118 29.5068V30.0068ZM58.9391 27.2907C61.1827 25.0978 61.5096 22.094 61.5096 20.5328H61.0096C61.0096 22.0491 60.6876 24.8825 58.5896 26.9331L58.9391 27.2907ZM61.5096 20.5328C61.5096 18.857 61.1055 15.5562 58.3527 13.1612L58.0245 13.5384C60.6168 15.7938 61.0096 18.9158 61.0096 20.5328H61.5096ZM58.3514 13.1601C56.0953 11.224 53.687 10.75 50.3633 10.75V11.25C53.634 11.25 55.9005 11.7156 58.0257 13.5396L58.3514 13.1601ZM50.3633 10.75H41.5679V11.25H50.3633V10.75ZM41.3179 11V39.5714H41.8179V11H41.3179ZM41.5679 39.8214H48.2576V39.3214H41.5679V39.8214ZM48.5076 39.5714V29.7568H48.0076V39.5714H48.5076ZM48.2576 30.0068H51.2118V29.5068H48.2576V30.0068Z" fill="#80949F"/>
<path fill-rule="evenodd" clip-rule="evenodd" d="M81.3283 24.4934C79.8739 23.2314 77.8436 22.4997 75.5394 21.7409C73.8976 21.1814 72.993 20.8731 72.3899 20.3346C71.9139 19.9389 71.7016 19.5092 71.7016 18.9414C71.7016 17.6976 72.5646 16.3685 74.9872 16.3685C76.6335 16.3685 78.012 17.0579 79.0845 18.4168L79.5103 18.9564L83.043 14.5523L82.7209 14.2364C80.5604 12.1188 77.7133 11 74.4874 11C67.9788 11 65.0653 15.147 65.0653 19.2569C65.0653 21.4624 65.8684 23.2411 67.4473 24.5414C68.8609 25.728 70.5848 26.3929 72.2383 26.9356L72.4253 26.9963C73.8937 27.4716 75.4123 27.9636 76.3193 28.7586C76.9504 29.3265 77.2316 29.9436 77.2316 30.7594C77.2316 32.6289 75.7282 33.8854 73.4908 33.8854C71.7222 33.8854 69.3932 33.0363 68.1611 30.654L67.8388 30.0298L63.4478 34.0107L63.7067 34.3694C65.1077 36.3122 68.2689 39.5714 73.6991 39.5714C79.6867 39.5714 83.8688 35.8013 83.8688 30.4035C83.8688 27.3162 82.4858 25.4838 81.3283 24.4934" fill="#6B7B84"/>
<path d="M81.3283 24.4934C79.8739 23.2314 77.8436 22.4997 75.5394 21.7409C73.8976 21.1814 72.993 20.8731 72.3899 20.3346C71.9139 19.9389 71.7016 19.5092 71.7016 18.9414C71.7016 17.6976 72.5646 16.3685 74.9872 16.3685C76.6335 16.3685 78.012 17.0579 79.0845 18.4168L79.5103 18.9564L83.043 14.5523L82.7209 14.2364C80.5604 12.1188 77.7133 11 74.4874 11C67.9788 11 65.0653 15.147 65.0653 19.2569C65.0653 21.4624 65.8684 23.2411 67.4473 24.5414C68.8609 25.728 70.5848 26.3929 72.2383 26.9356L72.4253 26.9963C73.8937 27.4716 75.4123 27.9636 76.3193 28.7586C76.9504 29.3265 77.2316 29.9436 77.2316 30.7594C77.2316 32.6289 75.7282 33.8854 73.4908 33.8854C71.7222 33.8854 69.3932 33.0363 68.1611 30.654L67.8388 30.0298L63.4478 34.0107L63.7067 34.3694C65.1077 36.3122 68.2689 39.5714 73.6991 39.5714C79.6867 39.5714 83.8688 35.8013 83.8688 30.4035C83.8688 27.3162 82.4858 25.4838 81.3283 24.4934" stroke="#80949F" stroke-width="0.5"/>
</svg>
